M48
; DRILL file {KiCad 6.0.2+dfsg-1} date Sa 14 Jan 2023 15:26:08 CET
; FORMAT={-:-/ absolute / inch / decimal}
; #@! TF.CreationDate,2023-01-14T15:26:08+01:00
; #@! TF.GenerationSoftware,Kicad,Pcbnew,6.0.2+dfsg-1
; #@! TF.FileFunction,Plated,1,2,PTH
FMAT,2
INCH
; #@! TA.AperFunction,Plated,PTH,ViaDrill
T1C0.0157
; #@! TA.AperFunction,Plated,PTH,ComponentDrill
T2C0.0276
; #@! TA.AperFunction,Plated,PTH,ComponentDrill
T3C0.0315
; #@! TA.AperFunction,Plated,PTH,ComponentDrill
T4C0.0354
; #@! TA.AperFunction,Plated,PTH,ComponentDrill
T5C0.0394
; #@! TA.AperFunction,Plated,PTH,ComponentDrill
T6C0.0453
; #@! TA.AperFunction,Plated,PTH,ComponentDrill
T7C0.0512
; #@! TA.AperFunction,Plated,PTH,ComponentDrill
T8C0.0531
%
G90
G05
T1
X2.27Y-2.025
X2.27Y-2.095
X2.27Y-2.165
X2.27Y-2.235
X2.27Y-2.305
X2.27Y-2.375
X2.27Y-2.445
X2.27Y-2.515
X2.27Y-2.585
X2.27Y-2.655
X2.27Y-2.725
X2.27Y-2.795
X2.27Y-2.865
X2.27Y-2.935
X2.63Y-2.36
X2.695Y-2.175
X2.75Y-2.95
X2.75Y-3.04
X2.8437Y-2.1863
X2.8437Y-2.2413
X2.8437Y-2.425
X2.8518Y-1.3718
X2.9Y-1.42
X2.9374Y-1.9626
X2.94Y-2.01
X2.955Y-2.95
X2.955Y-3.04
X3.005Y-2.12
X3.0174Y-1.9626
X3.05Y-1.87
X3.0842Y-2.955
X3.095Y-2.53
X3.1Y-2.12
X3.1Y-2.23
X3.1Y-3.62
X3.115Y-2.4
X3.12Y-2.955
X3.15Y-2.075
X3.15Y-2.82
X3.2Y-2.23
X3.2Y-2.48
X3.2Y-2.62
X3.205Y-3.62
X3.21Y-1.6
X3.25Y-2.955
X3.265Y-2.8
X3.29Y-2.12
X3.3Y-2.955
X3.325Y-3.17
X3.36Y-2.02
X3.43Y-1.31
X3.51Y-1.4
X3.53Y-3.14
X3.55Y-1.97
X3.58Y-3.245
X3.585Y-1.97
X3.59Y-2.57
X3.62Y-1.97
X3.62Y-3.38
X3.625Y-2.84
X3.63Y-3.44
X3.63Y-3.51
X3.66Y-3.68
X3.69Y-2.93
X3.69Y-3.1
X3.7Y-3.9
X3.73Y-1.4
X3.77Y-3.57
X3.78Y-2.93
X3.82Y-1.3
X3.85Y-3.05
X3.86Y-1.4
X3.87Y-1.56
X3.92Y-1.33
X3.92Y-1.82
X3.92Y-1.95
X3.92Y-2.12
X3.925Y-2.655
X3.95Y-3.21
X3.96Y-1.87
X3.97Y-1.45
X3.99Y-1.99
X4.02Y-1.73
X4.07Y-1.57
X4.09Y-1.95
X4.11Y-1.91
X4.12Y-2.96
X4.135Y-2.675
X4.14Y-2.16
T2
X3.5119Y-1.5211
X3.5119Y-1.5711
X3.5119Y-1.6211
X3.5119Y-1.6711
X3.5119Y-1.7211
X3.5119Y-1.7711
X3.5119Y-1.8211
X3.5119Y-1.8711
T3
X1.9777Y-2.9376
X2.042Y-2.6424
T4
X2.5352Y-2.045
X2.6352Y-2.045
X3.3948Y-2.955
X3.4948Y-2.955
X3.9498Y-2.955
X4.0498Y-2.955
T5
X2.035Y-3.41
X2.035Y-3.6069
X2.5682Y-1.3718
X2.5682Y-1.8443
X3.1925Y-3.2053
X3.1925Y-3.8116
X3.351Y-2.2972
X3.351Y-2.3972
X3.351Y-2.4972
X3.351Y-2.5972
X3.351Y-2.6972
X3.3998Y-3.3752
X3.3998Y-3.4752
X3.3998Y-3.5752
X3.3998Y-3.6752
X3.3998Y-3.7752
X3.4998Y-3.3752
X3.4998Y-3.4752
X3.4998Y-3.5752
X3.4998Y-3.6752
X3.4998Y-3.7752
X3.6629Y-1.5459
X3.6629Y-1.6459
X3.6629Y-1.7459
X3.6629Y-1.8459
X3.7629Y-1.5459
X3.7629Y-1.6459
X3.7629Y-1.7459
X3.7629Y-1.8459
X4.174Y-1.4699
X4.174Y-1.5699
X4.174Y-1.6699
X4.174Y-1.7699
X4.174Y-1.8699
T6
X1.5113Y-1.9891
X1.5113Y-2.1859
X1.5113Y-2.3828
X1.5113Y-2.7191
X1.5113Y-2.9159
X1.5113Y-3.1128
X1.7081Y-1.9891
X1.7081Y-2.1859
X1.7081Y-2.3828
X1.7081Y-2.7191
X1.7081Y-2.9159
X1.7081Y-3.1128
X2.5491Y-2.5269
X2.5491Y-2.7237
X2.7459Y-2.5269
X2.7459Y-2.7237
X2.9428Y-2.5269
X2.9428Y-2.7237
X3.8481Y-3.25
X3.8481Y-3.4469
X3.8481Y-3.6437
X3.8481Y-3.8406
X4.045Y-3.25
X4.045Y-3.4469
X4.045Y-3.6437
X4.045Y-3.8406
T7
X2.0859Y-1.8462
X2.0879Y-1.3718
X2.645Y-1.61
T8
X1.4Y-3.635
X1.405Y-1.556
X1.8Y-3.635
X1.805Y-1.556
T0
M30
