%TF.GenerationSoftware,KiCad,Pcbnew,6.0.2+dfsg-1*%
%TF.CreationDate,2023-01-14T15:25:46+01:00*%
%TF.ProjectId,OpenDTU,4f70656e-4454-4552-9e6b-696361645f70,rev?*%
%TF.SameCoordinates,Original*%
%TF.FileFunction,Paste,Bot*%
%TF.FilePolarity,Positive*%
%FSLAX46Y46*%
G04 Gerber Fmt 4.6, Leading zero omitted, Abs format (unit mm)*
G04 Created by KiCad (PCBNEW 6.0.2+dfsg-1) date 2023-01-14 15:25:46*
%MOMM*%
%LPD*%
G01*
G04 APERTURE LIST*
G04 Aperture macros list*
%AMRoundRect*
0 Rectangle with rounded corners*
0 $1 Rounding radius*
0 $2 $3 $4 $5 $6 $7 $8 $9 X,Y pos of 4 corners*
0 Add a 4 corners polygon primitive as box body*
4,1,4,$2,$3,$4,$5,$6,$7,$8,$9,$2,$3,0*
0 Add four circle primitives for the rounded corners*
1,1,$1+$1,$2,$3*
1,1,$1+$1,$4,$5*
1,1,$1+$1,$6,$7*
1,1,$1+$1,$8,$9*
0 Add four rect primitives between the rounded corners*
20,1,$1+$1,$2,$3,$4,$5,0*
20,1,$1+$1,$4,$5,$6,$7,0*
20,1,$1+$1,$6,$7,$8,$9,0*
20,1,$1+$1,$8,$9,$2,$3,0*%
G04 Aperture macros list end*
%ADD10RoundRect,0.225000X0.225000X0.250000X-0.225000X0.250000X-0.225000X-0.250000X0.225000X-0.250000X0*%
%ADD11RoundRect,0.200000X-0.200000X-0.275000X0.200000X-0.275000X0.200000X0.275000X-0.200000X0.275000X0*%
%ADD12RoundRect,0.200000X-0.275000X0.200000X-0.275000X-0.200000X0.275000X-0.200000X0.275000X0.200000X0*%
%ADD13RoundRect,0.225000X-0.250000X0.225000X-0.250000X-0.225000X0.250000X-0.225000X0.250000X0.225000X0*%
%ADD14RoundRect,0.250000X-0.925000X0.412500X-0.925000X-0.412500X0.925000X-0.412500X0.925000X0.412500X0*%
%ADD15RoundRect,0.225000X-0.225000X-0.250000X0.225000X-0.250000X0.225000X0.250000X-0.225000X0.250000X0*%
%ADD16RoundRect,0.218750X0.218750X0.381250X-0.218750X0.381250X-0.218750X-0.381250X0.218750X-0.381250X0*%
%ADD17RoundRect,0.218750X-0.218750X-0.381250X0.218750X-0.381250X0.218750X0.381250X-0.218750X0.381250X0*%
%ADD18R,0.660000X0.730000*%
%ADD19R,0.630000X0.450000*%
%ADD20R,1.800000X2.500000*%
%ADD21R,0.900000X1.500000*%
%ADD22R,1.500000X0.900000*%
%ADD23R,0.900000X0.900000*%
%ADD24RoundRect,0.200000X0.200000X0.275000X-0.200000X0.275000X-0.200000X-0.275000X0.200000X-0.275000X0*%
%ADD25RoundRect,0.218750X0.381250X-0.218750X0.381250X0.218750X-0.381250X0.218750X-0.381250X-0.218750X0*%
%ADD26RoundRect,0.150000X-0.150000X0.587500X-0.150000X-0.587500X0.150000X-0.587500X0.150000X0.587500X0*%
%ADD27RoundRect,0.250000X1.000000X2.900000X-1.000000X2.900000X-1.000000X-2.900000X1.000000X-2.900000X0*%
%ADD28RoundRect,0.200000X0.275000X-0.200000X0.275000X0.200000X-0.275000X0.200000X-0.275000X-0.200000X0*%
G04 APERTURE END LIST*
D10*
%TO.C,C10*%
X70625000Y-72136000D03*
X69075000Y-72136000D03*
%TD*%
D11*
%TO.C,R3*%
X81471000Y-68707000D03*
X83121000Y-68707000D03*
%TD*%
D12*
%TO.C,R4*%
X94996000Y-73470000D03*
X94996000Y-75120000D03*
%TD*%
D13*
%TO.C,C6*%
X86687500Y-46215000D03*
X86687500Y-47765000D03*
%TD*%
D14*
%TO.C,C2*%
X78105000Y-86092500D03*
X78105000Y-89167500D03*
%TD*%
%TO.C,C9*%
X102870000Y-42418000D03*
X102870000Y-45493000D03*
%TD*%
D15*
%TO.C,C3*%
X69075000Y-73787000D03*
X70625000Y-73787000D03*
%TD*%
%TO.C,C7*%
X95872000Y-94869000D03*
X97422000Y-94869000D03*
%TD*%
D16*
%TO.C,L4*%
X70785500Y-60579000D03*
X68660500Y-60579000D03*
%TD*%
D12*
%TO.C,R1*%
X77470000Y-48705000D03*
X77470000Y-50355000D03*
%TD*%
D17*
%TO.C,L2*%
X92409500Y-97663000D03*
X94534500Y-97663000D03*
%TD*%
D18*
%TO.C,U1*%
X72815000Y-49934000D03*
X71965000Y-50800000D03*
X71965000Y-51666000D03*
X71965000Y-49934000D03*
X72815000Y-50800000D03*
X72815000Y-51666000D03*
D19*
X71050000Y-51750000D03*
X71050000Y-50800000D03*
X71050000Y-49850000D03*
X73730000Y-49850000D03*
X73730000Y-50800000D03*
X73730000Y-51750000D03*
%TD*%
D20*
%TO.C,D3*%
X74930000Y-38894000D03*
X74930000Y-42894000D03*
%TD*%
D21*
%TO.C,U2*%
X107340000Y-69610000D03*
X106070000Y-69610000D03*
X104800000Y-69610000D03*
X103530000Y-69610000D03*
X102260000Y-69610000D03*
X100990000Y-69610000D03*
X99720000Y-69610000D03*
X98450000Y-69610000D03*
X97180000Y-69610000D03*
X95910000Y-69610000D03*
X94640000Y-69610000D03*
X93370000Y-69610000D03*
X92100000Y-69610000D03*
X90830000Y-69610000D03*
D22*
X89580000Y-66580000D03*
X89580000Y-65310000D03*
X89580000Y-64040000D03*
X89580000Y-62770000D03*
X89580000Y-61500000D03*
X89580000Y-60230000D03*
X89580000Y-58960000D03*
X89580000Y-57690000D03*
X89580000Y-56420000D03*
X89580000Y-55150000D03*
D21*
X90830000Y-52110000D03*
X92100000Y-52110000D03*
X93370000Y-52110000D03*
X94640000Y-52110000D03*
X95910000Y-52110000D03*
X97180000Y-52110000D03*
X98450000Y-52110000D03*
X99720000Y-52110000D03*
X100990000Y-52110000D03*
X102260000Y-52110000D03*
X103530000Y-52110000D03*
X104800000Y-52110000D03*
X106070000Y-52110000D03*
X107340000Y-52110000D03*
D23*
X98220000Y-63760000D03*
X101020000Y-60960000D03*
X98220000Y-60960000D03*
X101020000Y-62360000D03*
X99620000Y-60960000D03*
X98220000Y-62360000D03*
X101020000Y-63760000D03*
X99620000Y-63760000D03*
X99620000Y-62360000D03*
%TD*%
D24*
%TO.C,R5*%
X107251000Y-76073000D03*
X105601000Y-76073000D03*
%TD*%
D12*
%TO.C,R2*%
X80010000Y-49975000D03*
X80010000Y-51625000D03*
%TD*%
D25*
%TO.C,L3*%
X100838000Y-35907000D03*
X100838000Y-33782000D03*
%TD*%
D24*
%TO.C,R8*%
X70294000Y-53721000D03*
X68644000Y-53721000D03*
%TD*%
D26*
%TO.C,Q1*%
X64963000Y-55450500D03*
X66863000Y-55450500D03*
X65913000Y-57325500D03*
%TD*%
D10*
%TO.C,C4*%
X88913000Y-82931000D03*
X87363000Y-82931000D03*
%TD*%
D25*
%TO.C,L1*%
X83185000Y-88057500D03*
X83185000Y-85932500D03*
%TD*%
D27*
%TO.C,C8*%
X84440000Y-38100000D03*
X78740000Y-38100000D03*
%TD*%
D24*
%TO.C,R6*%
X107251000Y-74422000D03*
X105601000Y-74422000D03*
%TD*%
D28*
%TO.C,R7*%
X96774000Y-75120000D03*
X96774000Y-73470000D03*
%TD*%
D15*
%TO.C,C1*%
X105651000Y-72798000D03*
X107201000Y-72798000D03*
%TD*%
D14*
%TO.C,C5*%
X84074000Y-46214500D03*
X84074000Y-49289500D03*
%TD*%
M02*
