%TF.GenerationSoftware,KiCad,Pcbnew,6.0.2+dfsg-1*%
%TF.CreationDate,2023-01-14T15:25:47+01:00*%
%TF.ProjectId,OpenDTU,4f70656e-4454-4552-9e6b-696361645f70,rev?*%
%TF.SameCoordinates,Original*%
%TF.FileFunction,Soldermask,Top*%
%TF.FilePolarity,Negative*%
%FSLAX46Y46*%
G04 Gerber Fmt 4.6, Leading zero omitted, Abs format (unit mm)*
G04 Created by KiCad (PCBNEW 6.0.2+dfsg-1) date 2023-01-14 15:25:47*
%MOMM*%
%LPD*%
G01*
G04 APERTURE LIST*
%ADD10C,0.100000*%
%ADD11R,1.500000X3.000000*%
%ADD12O,1.500000X3.000000*%
%ADD13R,1.800000X1.800000*%
%ADD14C,1.800000*%
%ADD15C,2.200000*%
%ADD16C,3.000000*%
%ADD17R,2.300000X2.000000*%
%ADD18C,2.300000*%
%ADD19R,1.700000X1.700000*%
%ADD20O,1.700000X1.700000*%
%ADD21C,2.500000*%
%ADD22R,3.000000X1.500000*%
%ADD23O,3.000000X1.500000*%
%ADD24R,1.000000X1.000000*%
%ADD25O,1.000000X1.000000*%
G04 APERTURE END LIST*
D10*
X56896000Y-77089000D02*
X58420000Y-77089000D01*
X58420000Y-77089000D02*
X58420000Y-49784000D01*
X58420000Y-49784000D02*
X56896000Y-49784000D01*
X56896000Y-49784000D02*
X56896000Y-77089000D01*
G36*
X56896000Y-77089000D02*
G01*
X58420000Y-77089000D01*
X58420000Y-49784000D01*
X56896000Y-49784000D01*
X56896000Y-77089000D01*
G37*
D11*
%TO.C,ST_OW1*%
X74746000Y-64183000D03*
X74746000Y-69183000D03*
D12*
X69746000Y-69183000D03*
X69746000Y-64183000D03*
X64746000Y-64183000D03*
X64746000Y-69183000D03*
%TD*%
D13*
%TO.C,D1*%
X86228000Y-75057000D03*
D14*
X88768000Y-75057000D03*
%TD*%
D15*
%TO.C,FA1*%
X45640000Y-97329000D03*
X35640000Y-97329000D03*
X35640000Y-87329000D03*
X45640000Y-87329000D03*
D16*
X35560000Y-92329000D03*
X45720000Y-92329000D03*
%TD*%
D17*
%TO.C,PS1*%
X51689000Y-86614000D03*
D18*
X51689000Y-91614000D03*
X81089000Y-81414000D03*
X81089000Y-96814000D03*
%TD*%
D19*
%TO.C,ST_nRF1*%
X95577500Y-46885000D03*
D20*
X93037500Y-46885000D03*
X95577500Y-44345000D03*
X93037500Y-44345000D03*
X95577500Y-41805000D03*
X93037500Y-41805000D03*
X95577500Y-39265000D03*
X93037500Y-39265000D03*
%TD*%
D13*
%TO.C,D2*%
X100325000Y-75057000D03*
D14*
X102865000Y-75057000D03*
%TD*%
D15*
%TO.C,FA2*%
X35767000Y-44522000D03*
X45767000Y-34522000D03*
X45767000Y-44522000D03*
X35767000Y-34522000D03*
D16*
X35687000Y-39522000D03*
X45847000Y-39522000D03*
%TD*%
D13*
%TO.C,D4*%
X66934000Y-51943000D03*
D14*
X64394000Y-51943000D03*
%TD*%
D19*
%TO.C,ST_I2C1*%
X85115000Y-58350000D03*
D20*
X85115000Y-60890000D03*
X85115000Y-63430000D03*
X85115000Y-65970000D03*
X85115000Y-68510000D03*
%TD*%
D19*
%TO.C,ST_PRG1*%
X106020000Y-47495000D03*
D20*
X106020000Y-44955000D03*
X106020000Y-42415000D03*
X106020000Y-39875000D03*
X106020000Y-37335000D03*
%TD*%
D16*
%TO.C,REL1*%
X67183000Y-40894000D03*
D21*
X65233000Y-34844000D03*
D16*
X53033000Y-34844000D03*
X52983000Y-46894000D03*
D21*
X65233000Y-46844000D03*
%TD*%
D19*
%TO.C,ST_EXT1*%
X86355000Y-85730000D03*
D20*
X88895000Y-85730000D03*
X86355000Y-88270000D03*
X88895000Y-88270000D03*
X86355000Y-90810000D03*
X88895000Y-90810000D03*
X86355000Y-93350000D03*
X88895000Y-93350000D03*
X86355000Y-95890000D03*
X88895000Y-95890000D03*
%TD*%
D22*
%TO.C,ST_Line1*%
X38386000Y-79064000D03*
X43386000Y-79064000D03*
D23*
X38386000Y-74064000D03*
X43386000Y-74064000D03*
X38386000Y-69064000D03*
X43386000Y-69064000D03*
%TD*%
D22*
%TO.C,ST_REL1*%
X38386000Y-60522000D03*
X43386000Y-60522000D03*
D23*
X38386000Y-55522000D03*
X43386000Y-55522000D03*
X38386000Y-50522000D03*
X43386000Y-50522000D03*
%TD*%
D24*
%TO.C,ST_SI1*%
X89202500Y-47525000D03*
D25*
X89202500Y-46255000D03*
X89202500Y-44985000D03*
X89202500Y-43715000D03*
X89202500Y-42445000D03*
X89202500Y-41175000D03*
X89202500Y-39905000D03*
X89202500Y-38635000D03*
%TD*%
D22*
%TO.C,ST_IR1*%
X97743000Y-82550000D03*
X102743000Y-82550000D03*
D23*
X102743000Y-87550000D03*
X97743000Y-87550000D03*
X102743000Y-92550000D03*
X97743000Y-92550000D03*
X102743000Y-97550000D03*
X97743000Y-97550000D03*
%TD*%
D14*
%TO.C,RV1*%
X50234000Y-74616000D03*
X51867330Y-67116000D03*
%TD*%
M02*
