%TF.GenerationSoftware,KiCad,Pcbnew,6.0.2+dfsg-1*%
%TF.CreationDate,2023-01-14T15:25:47+01:00*%
%TF.ProjectId,OpenDTU,4f70656e-4454-4552-9e6b-696361645f70,rev?*%
%TF.SameCoordinates,Original*%
%TF.FileFunction,Soldermask,Bot*%
%TF.FilePolarity,Negative*%
%FSLAX46Y46*%
G04 Gerber Fmt 4.6, Leading zero omitted, Abs format (unit mm)*
G04 Created by KiCad (PCBNEW 6.0.2+dfsg-1) date 2023-01-14 15:25:47*
%MOMM*%
%LPD*%
G01*
G04 APERTURE LIST*
G04 Aperture macros list*
%AMRoundRect*
0 Rectangle with rounded corners*
0 $1 Rounding radius*
0 $2 $3 $4 $5 $6 $7 $8 $9 X,Y pos of 4 corners*
0 Add a 4 corners polygon primitive as box body*
4,1,4,$2,$3,$4,$5,$6,$7,$8,$9,$2,$3,0*
0 Add four circle primitives for the rounded corners*
1,1,$1+$1,$2,$3*
1,1,$1+$1,$4,$5*
1,1,$1+$1,$6,$7*
1,1,$1+$1,$8,$9*
0 Add four rect primitives between the rounded corners*
20,1,$1+$1,$2,$3,$4,$5,0*
20,1,$1+$1,$4,$5,$6,$7,0*
20,1,$1+$1,$6,$7,$8,$9,0*
20,1,$1+$1,$8,$9,$2,$3,0*%
G04 Aperture macros list end*
%ADD10C,0.200000*%
%ADD11R,1.500000X3.000000*%
%ADD12O,1.500000X3.000000*%
%ADD13R,1.800000X1.800000*%
%ADD14C,1.800000*%
%ADD15C,2.200000*%
%ADD16C,3.000000*%
%ADD17R,2.300000X2.000000*%
%ADD18C,2.300000*%
%ADD19R,1.700000X1.700000*%
%ADD20O,1.700000X1.700000*%
%ADD21C,2.500000*%
%ADD22R,3.000000X1.500000*%
%ADD23O,3.000000X1.500000*%
%ADD24R,1.000000X1.000000*%
%ADD25O,1.000000X1.000000*%
%ADD26RoundRect,0.225000X0.225000X0.250000X-0.225000X0.250000X-0.225000X-0.250000X0.225000X-0.250000X0*%
%ADD27RoundRect,0.200000X-0.200000X-0.275000X0.200000X-0.275000X0.200000X0.275000X-0.200000X0.275000X0*%
%ADD28RoundRect,0.200000X-0.275000X0.200000X-0.275000X-0.200000X0.275000X-0.200000X0.275000X0.200000X0*%
%ADD29RoundRect,0.225000X-0.250000X0.225000X-0.250000X-0.225000X0.250000X-0.225000X0.250000X0.225000X0*%
%ADD30RoundRect,0.250000X-0.925000X0.412500X-0.925000X-0.412500X0.925000X-0.412500X0.925000X0.412500X0*%
%ADD31RoundRect,0.225000X-0.225000X-0.250000X0.225000X-0.250000X0.225000X0.250000X-0.225000X0.250000X0*%
%ADD32RoundRect,0.218750X0.218750X0.381250X-0.218750X0.381250X-0.218750X-0.381250X0.218750X-0.381250X0*%
%ADD33RoundRect,0.218750X-0.218750X-0.381250X0.218750X-0.381250X0.218750X0.381250X-0.218750X0.381250X0*%
%ADD34R,0.630000X0.450000*%
%ADD35R,1.500000X2.600000*%
%ADD36R,1.800000X2.500000*%
%ADD37R,0.900000X1.500000*%
%ADD38R,1.500000X0.900000*%
%ADD39R,0.900000X0.900000*%
%ADD40RoundRect,0.200000X0.200000X0.275000X-0.200000X0.275000X-0.200000X-0.275000X0.200000X-0.275000X0*%
%ADD41RoundRect,0.218750X0.381250X-0.218750X0.381250X0.218750X-0.381250X0.218750X-0.381250X-0.218750X0*%
%ADD42RoundRect,0.150000X-0.150000X0.587500X-0.150000X-0.587500X0.150000X-0.587500X0.150000X0.587500X0*%
%ADD43RoundRect,0.250000X1.000000X2.900000X-1.000000X2.900000X-1.000000X-2.900000X1.000000X-2.900000X0*%
%ADD44RoundRect,0.200000X0.275000X-0.200000X0.275000X0.200000X-0.275000X0.200000X-0.275000X-0.200000X0*%
G04 APERTURE END LIST*
D10*
X56896000Y-49784000D02*
X58420000Y-49784000D01*
X58420000Y-49784000D02*
X58420000Y-77089000D01*
X58420000Y-77089000D02*
X56896000Y-77089000D01*
X56896000Y-77089000D02*
X56896000Y-49784000D01*
G36*
X56896000Y-49784000D02*
G01*
X58420000Y-49784000D01*
X58420000Y-77089000D01*
X56896000Y-77089000D01*
X56896000Y-49784000D01*
G37*
D11*
%TO.C,ST_OW1*%
X74746000Y-64183000D03*
X74746000Y-69183000D03*
D12*
X69746000Y-69183000D03*
X69746000Y-64183000D03*
X64746000Y-64183000D03*
X64746000Y-69183000D03*
%TD*%
D13*
%TO.C,D1*%
X86228000Y-75057000D03*
D14*
X88768000Y-75057000D03*
%TD*%
D15*
%TO.C,FA1*%
X45640000Y-97329000D03*
X35640000Y-97329000D03*
X35640000Y-87329000D03*
X45640000Y-87329000D03*
D16*
X35560000Y-92329000D03*
X45720000Y-92329000D03*
%TD*%
D17*
%TO.C,PS1*%
X51689000Y-86614000D03*
D18*
X51689000Y-91614000D03*
X81089000Y-81414000D03*
X81089000Y-96814000D03*
%TD*%
D19*
%TO.C,ST_nRF1*%
X95577500Y-46885000D03*
D20*
X93037500Y-46885000D03*
X95577500Y-44345000D03*
X93037500Y-44345000D03*
X95577500Y-41805000D03*
X93037500Y-41805000D03*
X95577500Y-39265000D03*
X93037500Y-39265000D03*
%TD*%
D13*
%TO.C,D2*%
X100325000Y-75057000D03*
D14*
X102865000Y-75057000D03*
%TD*%
D15*
%TO.C,FA2*%
X35767000Y-44522000D03*
X45767000Y-34522000D03*
X45767000Y-44522000D03*
X35767000Y-34522000D03*
D16*
X35687000Y-39522000D03*
X45847000Y-39522000D03*
%TD*%
D13*
%TO.C,D4*%
X66934000Y-51943000D03*
D14*
X64394000Y-51943000D03*
%TD*%
D19*
%TO.C,ST_I2C1*%
X85115000Y-58350000D03*
D20*
X85115000Y-60890000D03*
X85115000Y-63430000D03*
X85115000Y-65970000D03*
X85115000Y-68510000D03*
%TD*%
D19*
%TO.C,ST_PRG1*%
X106020000Y-47495000D03*
D20*
X106020000Y-44955000D03*
X106020000Y-42415000D03*
X106020000Y-39875000D03*
X106020000Y-37335000D03*
%TD*%
D16*
%TO.C,REL1*%
X67183000Y-40894000D03*
D21*
X65233000Y-34844000D03*
D16*
X53033000Y-34844000D03*
X52983000Y-46894000D03*
D21*
X65233000Y-46844000D03*
%TD*%
D19*
%TO.C,ST_EXT1*%
X86355000Y-85730000D03*
D20*
X88895000Y-85730000D03*
X86355000Y-88270000D03*
X88895000Y-88270000D03*
X86355000Y-90810000D03*
X88895000Y-90810000D03*
X86355000Y-93350000D03*
X88895000Y-93350000D03*
X86355000Y-95890000D03*
X88895000Y-95890000D03*
%TD*%
D22*
%TO.C,ST_Line1*%
X38386000Y-79064000D03*
X43386000Y-79064000D03*
D23*
X38386000Y-74064000D03*
X43386000Y-74064000D03*
X38386000Y-69064000D03*
X43386000Y-69064000D03*
%TD*%
D22*
%TO.C,ST_REL1*%
X38386000Y-60522000D03*
X43386000Y-60522000D03*
D23*
X38386000Y-55522000D03*
X43386000Y-55522000D03*
X38386000Y-50522000D03*
X43386000Y-50522000D03*
%TD*%
D24*
%TO.C,ST_SI1*%
X89202500Y-47525000D03*
D25*
X89202500Y-46255000D03*
X89202500Y-44985000D03*
X89202500Y-43715000D03*
X89202500Y-42445000D03*
X89202500Y-41175000D03*
X89202500Y-39905000D03*
X89202500Y-38635000D03*
%TD*%
D22*
%TO.C,ST_IR1*%
X97743000Y-82550000D03*
X102743000Y-82550000D03*
D23*
X102743000Y-87550000D03*
X97743000Y-87550000D03*
X102743000Y-92550000D03*
X97743000Y-92550000D03*
X102743000Y-97550000D03*
X97743000Y-97550000D03*
%TD*%
D14*
%TO.C,RV1*%
X50234000Y-74616000D03*
X51867330Y-67116000D03*
%TD*%
D26*
%TO.C,C10*%
X70625000Y-72136000D03*
X69075000Y-72136000D03*
%TD*%
D27*
%TO.C,R3*%
X81471000Y-68707000D03*
X83121000Y-68707000D03*
%TD*%
D28*
%TO.C,R4*%
X94996000Y-73470000D03*
X94996000Y-75120000D03*
%TD*%
D29*
%TO.C,C6*%
X86687500Y-46215000D03*
X86687500Y-47765000D03*
%TD*%
D30*
%TO.C,C2*%
X78105000Y-86092500D03*
X78105000Y-89167500D03*
%TD*%
%TO.C,C9*%
X102870000Y-42418000D03*
X102870000Y-45493000D03*
%TD*%
D31*
%TO.C,C3*%
X69075000Y-73787000D03*
X70625000Y-73787000D03*
%TD*%
%TO.C,C7*%
X95872000Y-94869000D03*
X97422000Y-94869000D03*
%TD*%
D32*
%TO.C,L4*%
X70785500Y-60579000D03*
X68660500Y-60579000D03*
%TD*%
D28*
%TO.C,R1*%
X77470000Y-48705000D03*
X77470000Y-50355000D03*
%TD*%
D33*
%TO.C,L2*%
X92409500Y-97663000D03*
X94534500Y-97663000D03*
%TD*%
D34*
%TO.C,U1*%
X71050000Y-51750000D03*
X71050000Y-50800000D03*
X71050000Y-49850000D03*
X73730000Y-49850000D03*
X73730000Y-50800000D03*
X73730000Y-51750000D03*
D35*
X72390000Y-50800000D03*
%TD*%
D36*
%TO.C,D3*%
X74930000Y-38894000D03*
X74930000Y-42894000D03*
%TD*%
D37*
%TO.C,U2*%
X107340000Y-69610000D03*
X106070000Y-69610000D03*
X104800000Y-69610000D03*
X103530000Y-69610000D03*
X102260000Y-69610000D03*
X100990000Y-69610000D03*
X99720000Y-69610000D03*
X98450000Y-69610000D03*
X97180000Y-69610000D03*
X95910000Y-69610000D03*
X94640000Y-69610000D03*
X93370000Y-69610000D03*
X92100000Y-69610000D03*
X90830000Y-69610000D03*
D38*
X89580000Y-66580000D03*
X89580000Y-65310000D03*
X89580000Y-64040000D03*
X89580000Y-62770000D03*
X89580000Y-61500000D03*
X89580000Y-60230000D03*
X89580000Y-58960000D03*
X89580000Y-57690000D03*
X89580000Y-56420000D03*
X89580000Y-55150000D03*
D37*
X90830000Y-52110000D03*
X92100000Y-52110000D03*
X93370000Y-52110000D03*
X94640000Y-52110000D03*
X95910000Y-52110000D03*
X97180000Y-52110000D03*
X98450000Y-52110000D03*
X99720000Y-52110000D03*
X100990000Y-52110000D03*
X102260000Y-52110000D03*
X103530000Y-52110000D03*
X104800000Y-52110000D03*
X106070000Y-52110000D03*
X107340000Y-52110000D03*
D39*
X98220000Y-63760000D03*
X101020000Y-60960000D03*
X98220000Y-60960000D03*
X101020000Y-62360000D03*
X99620000Y-60960000D03*
X98220000Y-62360000D03*
X101020000Y-63760000D03*
X99620000Y-63760000D03*
X99620000Y-62360000D03*
%TD*%
D40*
%TO.C,R5*%
X107251000Y-76073000D03*
X105601000Y-76073000D03*
%TD*%
D28*
%TO.C,R2*%
X80010000Y-49975000D03*
X80010000Y-51625000D03*
%TD*%
D41*
%TO.C,L3*%
X100838000Y-35907000D03*
X100838000Y-33782000D03*
%TD*%
D40*
%TO.C,R8*%
X70294000Y-53721000D03*
X68644000Y-53721000D03*
%TD*%
D42*
%TO.C,Q1*%
X64963000Y-55450500D03*
X66863000Y-55450500D03*
X65913000Y-57325500D03*
%TD*%
D26*
%TO.C,C4*%
X88913000Y-82931000D03*
X87363000Y-82931000D03*
%TD*%
D41*
%TO.C,L1*%
X83185000Y-88057500D03*
X83185000Y-85932500D03*
%TD*%
D43*
%TO.C,C8*%
X84440000Y-38100000D03*
X78740000Y-38100000D03*
%TD*%
D40*
%TO.C,R6*%
X107251000Y-74422000D03*
X105601000Y-74422000D03*
%TD*%
D44*
%TO.C,R7*%
X96774000Y-75120000D03*
X96774000Y-73470000D03*
%TD*%
D31*
%TO.C,C1*%
X105651000Y-72798000D03*
X107201000Y-72798000D03*
%TD*%
D30*
%TO.C,C5*%
X84074000Y-46214500D03*
X84074000Y-49289500D03*
%TD*%
M02*
