%TF.GenerationSoftware,KiCad,Pcbnew,6.0.2+dfsg-1*%
%TF.CreationDate,2023-01-14T15:25:47+01:00*%
%TF.ProjectId,OpenDTU,4f70656e-4454-4552-9e6b-696361645f70,rev?*%
%TF.SameCoordinates,Original*%
%TF.FileFunction,Profile,NP*%
%FSLAX46Y46*%
G04 Gerber Fmt 4.6, Leading zero omitted, Abs format (unit mm)*
G04 Created by KiCad (PCBNEW 6.0.2+dfsg-1) date 2023-01-14 15:25:47*
%MOMM*%
%LPD*%
G01*
G04 APERTURE LIST*
%TA.AperFunction,Profile*%
%ADD10C,0.050000*%
%TD*%
G04 APERTURE END LIST*
D10*
X70485000Y-36576000D02*
X58420000Y-36576000D01*
X56896000Y-37338000D02*
X56896000Y-33147000D01*
X67818000Y-30480000D02*
X32512000Y-30480000D01*
X58420000Y-44958000D02*
X70612000Y-44958000D01*
X70612000Y-44958000D02*
G75*
G03*
X71247000Y-44323000I1J634999D01*
G01*
X56896000Y-37338000D02*
G75*
G03*
X57658000Y-38100000I762001J1D01*
G01*
X108458000Y-102870000D02*
X72643998Y-102870000D01*
X58420000Y-33147000D02*
G75*
G03*
X56896000Y-33147000I-762000J0D01*
G01*
X57912000Y-99441000D02*
X57912000Y-78867000D01*
X59436000Y-78867000D02*
X59436000Y-99441000D01*
X56896000Y-44196000D02*
X56896000Y-48895000D01*
X69723000Y-43434000D02*
X57658000Y-43434000D01*
X108458000Y-30480000D02*
X108458000Y-102870000D01*
X58420000Y-36576000D02*
X58420000Y-33147000D01*
X59436000Y-78867000D02*
G75*
G03*
X57912000Y-78867000I-762000J0D01*
G01*
X57912000Y-99441000D02*
G75*
G03*
X59436000Y-99441000I762000J0D01*
G01*
X72644000Y-30480000D02*
X108458000Y-30480000D01*
X56896000Y-48895000D02*
G75*
G03*
X58420000Y-48895000I762000J0D01*
G01*
X71247000Y-44323000D02*
X71247000Y-37338000D01*
X57658000Y-38100000D02*
X69723000Y-38100000D01*
X57658000Y-43434000D02*
G75*
G03*
X56896000Y-44196000I1J-762001D01*
G01*
X72643998Y-102870000D02*
G75*
G03*
X67818000Y-102870000I-2412999J0D01*
G01*
X32512000Y-102870000D02*
X32512000Y-30480000D01*
X71247000Y-37338000D02*
G75*
G03*
X70485000Y-36576000I-762001J-1D01*
G01*
X69723000Y-38100000D02*
X69723000Y-43434000D01*
X32512000Y-102870000D02*
X67818000Y-102870000D01*
X58420000Y-48895000D02*
X58420000Y-44958000D01*
X67818000Y-30480000D02*
G75*
G03*
X72644000Y-30480000I2413000J0D01*
G01*
M02*
